{
  "accessors": [
    {
      "bufferView": 2,
      "componentType": 5126,
      "count": 432,
      "max": [
        46.925613403320312,
        36.393257141113281,
        3.0000004768371582
      ],
      "min": [
        -20.893465042114258,
        -35.767791748046875,
        -61.554290771484375
      ],
      "type": "VEC3"
    },
    {
      "bufferView": 2,
      "byteOffset": 5184,
      "componentType": 5126,
      "count": 432,
      "max": [
        1,
        1,
        1
      ],
      "min": [
        -1,
        -1,
        -1
      ],
      "type": "VEC3"
    },
    {
      "bufferView": 1,
      "componentType": 5126,
      "count": 432,
      "max": [
        0.98101115226745605,
        0.97832196950912476
      ],
      "min": [
        0.00050000002374872565,
        0.00050000002374872565
      ],
      "type": "VEC2"
    },
    {
      "bufferView": 1,
      "byteOffset": 3456,
      "componentType": 5126,
      "count": 432,
      "max": [
        0.98101115226745605,
        0.97832196950912476
      ],
      "min": [
        0.00050000002374872565,
        0.00050000002374872565
      ],
      "type": "VEC2"
    },
    {
      "bufferView": 0,
      "componentType": 5125,
      "count": 1080,
      "max": [
        431
      ],
      "min": [
        0
      ],
      "type": "SCALAR"
    },
    {
      "bufferView": 2,
      "byteOffset": 10368,
      "componentType": 5126,
      "count": 679,
      "max": [
        39.273880004882812,
        31.957738876342773,
        -24.412059783935547
      ],
      "min": [
        34.900928497314453,
        25.6929931640625,
        -34.072223663330078
      ],
      "type": "VEC3"
    },
    {
      "bufferView": 2,
      "byteOffset": 18516,
      "componentType": 5126,
      "count": 679,
      "max": [
        1,
        1,
        1
      ],
      "min": [
        -1,
        -1,
        -1
      ],
      "type": "VEC3"
    },
    {
      "bufferView": 1,
      "byteOffset": 6912,
      "componentType": 5126,
      "count": 679,
      "max": [
        0.96807116270065308,
        0.8299524188041687
      ],
      "min": [
        0.058722283691167831,
        0.029611140489578247
      ],
      "type": "VEC2"
    },
    {
      "bufferView": 1,
      "byteOffset": 12344,
      "componentType": 5126,
      "count": 679,
      "max": [
        0.96807116270065308,
        0.8299524188041687
      ],
      "min": [
        0.058722283691167831,
        0.029611140489578247
      ],
      "type": "VEC2"
    },
    {
      "bufferView": 0,
      "byteOffset": 4320,
      "componentType": 5125,
      "count": 2106,
      "max": [
        678
      ],
      "min": [
        0
      ],
      "type": "SCALAR"
    },
    {
      "bufferView": 2,
      "byteOffset": 26664,
      "componentType": 5126,
      "count": 467,
      "max": [
        35.278453826904297,
        92.057807922363281,
        -5.0571455955505371
      ],
      "min": [
        -16.219398498535156,
        24.88311767578125,
        -53.425155639648438
      ],
      "type": "VEC3"
    },
    {
      "bufferView": 2,
      "byteOffset": 32268,
      "componentType": 5126,
      "count": 467,
      "max": [
        1,
        1,
        1
      ],
      "min": [
        -1,
        -1,
        -1
      ],
      "type": "VEC3"
    },
    {
      "bufferView": 1,
      "byteOffset": 17776,
      "componentType": 5126,
      "count": 467,
      "max": [
        0.99595421552658081,
        0.9904053807258606
      ],
      "min": [
        0.00050000002374872565,
        0.00050000002374872565
      ],
      "type": "VEC2"
    },
    {
      "bufferView": 1,
      "byteOffset": 21512,
      "componentType": 5126,
      "count": 467,
      "max": [
        0.99595421552658081,
        0.9904053807258606
      ],
      "min": [
        0.00050000002374872565,
        0.00050000002374872565
      ],
      "type": "VEC2"
    },
    {
      "bufferView": 0,
      "byteOffset": 12744,
      "componentType": 5125,
      "count": 1104,
      "max": [
        466
      ],
      "min": [
        0
      ],
      "type": "SCALAR"
    },
    {
      "bufferView": 2,
      "byteOffset": 37872,
      "componentType": 5126,
      "count": 570,
      "max": [
        46.62884521484375,
        91.130889892578125,
        -4.2150001525878906
      ],
      "min": [
        -17.067510604858398,
        17.434354782104492,
        -54.215011596679688
      ],
      "type": "VEC3"
    },
    {
      "bufferView": 2,
      "byteOffset": 44712,
      "componentType": 5126,
      "count": 570,
      "max": [
        1,
        1,
        1
      ],
      "min": [
        -1,
        -1,
        -1
      ],
      "type": "VEC3"
    },
    {
      "bufferView": 1,
      "byteOffset": 25248,
      "componentType": 5126,
      "count": 570,
      "max": [
        0.98458284139633179,
        0.97973096370697021
      ],
      "min": [
        0.014232544228434563,
        0.017806589603424072
      ],
      "type": "VEC2"
    },
    {
      "bufferView": 1,
      "byteOffset": 29808,
      "componentType": 5126,
      "count": 570,
      "max": [
        0.98458284139633179,
        0.97973096370697021
      ],
      "min": [
        0.014232544228434563,
        0.017806589603424072
      ],
      "type": "VEC2"
    },
    {
      "bufferView": 0,
      "byteOffset": 17160,
      "componentType": 5125,
      "count": 1176,
      "max": [
        569
      ],
      "min": [
        0
      ],
      "type": "SCALAR"
    },
    {
      "bufferView": 2,
      "byteOffset": 51552,
      "componentType": 5126,
      "count": 423,
      "max": [
        37.080043792724609,
        82.434356689453125,
        0.053228378295898438
      ],
      "min": [
        -21.534988403320312,
        37.434352874755859,
        -58.561805725097656
      ],
      "type": "VEC3"
    },
    {
      "bufferView": 2,
      "byteOffset": 56628,
      "componentType": 5126,
      "count": 423,
      "max": [
        1,
        1,
        1
      ],
      "min": [
        -1,
        -1,
        -1
      ],
      "type": "VEC3"
    },
    {
      "bufferView": 1,
      "byteOffset": 34368,
      "componentType": 5126,
      "count": 423,
      "max": [
        0.99649637937545776,
        0.99388039112091064
      ],
      "min": [
        0.014232538640499115,
        0.00050000002374872565
      ],
      "type": "VEC2"
    },
    {
      "bufferView": 1,
      "byteOffset": 37752,
      "componentType": 5126,
      "count": 423,
      "max": [
        0.99649637937545776,
        0.99388039112091064
      ],
      "min": [
        0.014232538640499115,
        0.00050000002374872565
      ],
      "type": "VEC2"
    },
    {
      "bufferView": 0,
      "byteOffset": 21864,
      "componentType": 5125,
      "count": 864,
      "max": [
        422
      ],
      "min": [
        0
      ],
      "type": "SCALAR"
    },
    {
      "bufferView": 2,
      "byteOffset": 61704,
      "componentType": 5126,
      "count": 2653,
      "max": [
        30.194246292114258,
        56.959373474121094,
        -6.8396682739257812
      ],
      "min": [
        -16.827533721923828,
        37.234291076660156,
        -52.996299743652344
      ],
      "type": "VEC3"
    },
    {
      "bufferView": 2,
      "byteOffset": 93540,
      "componentType": 5126,
      "count": 2653,
      "max": [
        0.99615061283111572,
        0.99854117631912231,
        0.99920499324798584
      ],
      "min": [
        -0.99615442752838135,
        -0.9987339973449707,
        -0.99926406145095825
      ],
      "type": "VEC3"
    },
    {
      "bufferView": 1,
      "byteOffset": 41136,
      "componentType": 5126,
      "count": 2653,
      "max": [
        0.99905854463577271,
        0.99412566423416138
      ],
      "min": [
        0.00050000002374872565,
        0.00050000147894024849
      ],
      "type": "VEC2"
    },
    {
      "bufferView": 1,
      "byteOffset": 62360,
      "componentType": 5126,
      "count": 2653,
      "max": [
        0.99905854463577271,
        0.99412566423416138
      ],
      "min": [
        0.00050000002374872565,
        0.00050000147894024849
      ],
      "type": "VEC2"
    },
    {
      "bufferView": 0,
      "byteOffset": 25320,
      "componentType": 5125,
      "count": 8568,
      "max": [
        2652
      ],
      "min": [
        0
      ],
      "type": "SCALAR"
    },
    {
      "bufferView": 2,
      "byteOffset": 125376,
      "componentType": 5126,
      "count": 5494,
      "max": [
        31.849365234375,
        59.773632049560547,
        -5.63824462890625
      ],
      "min": [
        -16.883426666259766,
        37.715736389160156,
        -52.9566650390625
      ],
      "type": "VEC3"
    },
    {
      "bufferView": 2,
      "byteOffset": 191304,
      "componentType": 5126,
      "count": 5494,
      "max": [
        0.99914813041687012,
        0.99873405694961548,
        0.99986565113067627
      ],
      "min": [
        -0.99917930364608765,
        -0.99864906072616577,
        -0.99986255168914795
      ],
      "type": "VEC3"
    },
    {
      "bufferView": 1,
      "byteOffset": 83584,
      "componentType": 5126,
      "count": 5494,
      "max": [
        0.99949997663497925,
        0.99454563856124878
      ],
      "min": [
        0.029611140489578247,
        0.00050000217743217945
      ],
      "type": "VEC2"
    },
    {
      "bufferView": 1,
      "byteOffset": 127536,
      "componentType": 5126,
      "count": 5494,
      "max": [
        0.99949997663497925,
        0.99454563856124878
      ],
      "min": [
        0.029611140489578247,
        0.00050000217743217945
      ],
      "type": "VEC2"
    },
    {
      "bufferView": 0,
      "byteOffset": 59592,
      "componentType": 5125,
      "count": 18144,
      "max": [
        5493
      ],
      "min": [
        0
      ],
      "type": "SCALAR"
    },
    {
      "bufferView": 2,
      "byteOffset": 257232,
      "componentType": 5126,
      "count": 1922,
      "max": [
        31.443199157714844,
        48.642265319824219,
        -6.8692054748535156
      ],
      "min": [
        -16.267404556274414,
        37.088161468505859,
        -41.982608795166016
      ],
      "type": "VEC3"
    },
    {
      "bufferView": 2,
      "byteOffset": 280296,
      "componentType": 5126,
      "count": 1922,
      "max": [
        0.99917930364608765,
        0.99853843450546265,
        0.99733436107635498
      ],
      "min": [
        -0.99911117553710938,
        -0.99836558103561401,
        -0.99736243486404419
      ],
      "type": "VEC3"
    },
    {
      "bufferView": 1,
      "byteOffset": 171488,
      "componentType": 5126,
      "count": 1922,
      "max": [
        0.98049694299697876,
        0.99218398332595825
      ],
      "min": [
        0.019084399566054344,
        0.028116194531321526
      ],
      "type": "VEC2"
    },
    {
      "bufferView": 1,
      "byteOffset": 186864,
      "componentType": 5126,
      "count": 1922,
      "max": [
        0.98049694299697876,
        0.99218398332595825
      ],
      "min": [
        0.019084399566054344,
        0.028116194531321526
      ],
      "type": "VEC2"
    },
    {
      "bufferView": 0,
      "byteOffset": 132168,
      "componentType": 5125,
      "count": 6120,
      "max": [
        1921
      ],
      "min": [
        0
      ],
      "type": "SCALAR"
    },
    {
      "bufferView": 2,
      "byteOffset": 303360,
      "componentType": 5126,
      "count": 2283,
      "max": [
        22.739200592041016,
        59.586933135986328,
        -14.950717926025391
      ],
      "min": [
        -4.667689323425293,
        37.002578735351562,
        -52.127101898193359
      ],
      "type": "VEC3"
    },
    {
      "bufferView": 2,
      "byteOffset": 330756,
      "componentType": 5126,
      "count": 2283,
      "max": [
        0.99608069658279419,
        0.99845147132873535,
        0.99985748529434204
      ],
      "min": [
        -0.99579125642776489,
        -0.99858826398849487,
        -0.99986565113067627
      ],
      "type": "VEC3"
    },
    {
      "bufferView": 1,
      "byteOffset": 202240,
      "componentType": 5126,
      "count": 2283,
      "max": [
        0.99949997663497925,
        0.97553914785385132
      ],
      "min": [
        0.015055570751428604,
        0.00050000147894024849
      ],
      "type": "VEC2"
    },
    {
      "bufferView": 1,
      "byteOffset": 220504,
      "componentType": 5126,
      "count": 2283,
      "max": [
        0.99949997663497925,
        0.97553914785385132
      ],
      "min": [
        0.015055570751428604,
        0.00050000147894024849
      ],
      "type": "VEC2"
    },
    {
      "bufferView": 0,
      "byteOffset": 156648,
      "componentType": 5125,
      "count": 7344,
      "max": [
        2282
      ],
      "min": [
        0
      ],
      "type": "SCALAR"
    }
  ],
  "asset": {
    "extras": {
      "author": "OctoMan (https://sketchfab.com/octoman)",
      "license": "SKETCHFAB Standard (https://sketchfab.com/licenses)",
      "source": "https://sketchfab.com/3d-models/gachapon-machine-abc78c45aad94251b8c5f89c71258154",
      "title": "Gachapon Machine"
    },
    "generator": "Sketchfab-8.33.0",
    "version": "2.0"
  },
  "bufferViews": [
    {
      "buffer": 0,
      "byteLength": 186024,
      "byteOffset": 0,
      "name": "floatBufferViews",
      "target": 34963
    },
    {
      "buffer": 0,
      "byteLength": 238768,
      "byteOffset": 186024,
      "byteStride": 8,
      "name": "floatBufferViews",
      "target": 34962
    },
    {
      "buffer": 0,
      "byteLength": 358152,
      "byteOffset": 424792,
      "byteStride": 12,
      "name": "floatBufferViews",
      "target": 34962
    }
  ],
  "buffers": [
    {
      "byteLength": 782944,
      "uri": "scene.bin"
    }
  ],
  "images": [
    {
      "uri": "textures/Material_37_baseColor.png"
    },
    {
      "uri": "textures/Material_37_metallicRoughness.png"
    }
  ],
  "materials": [
    {
      "doubleSided": true,
      "emissiveFactor": [
        0,
        0,
        0
      ],
      "name": "Material_37",
      "occlusionTexture": {
        "index": 1,
        "strength": 1,
        "texCoord": 0
      },
      "pbrMetallicRoughness": {
        "baseColorFactor": [
          1,
          1,
          1,
          1
        ],
        "baseColorTexture": {
          "index": 0,
          "texCoord": 0
        },
        "metallicFactor": 0.068591953498835651,
        "metallicRoughnessTexture": {
          "index": 1,
          "texCoord": 0
        },
        "roughnessFactor": 0.1050729924788258
      }
    },
    {
      "doubleSided": true,
      "emissiveFactor": [
        0,
        0,
        0
      ],
      "name": "Material_40",
      "pbrMetallicRoughness": {
        "baseColorFactor": [
          1,
          1,
          1,
          1
        ],
        "baseColorTexture": {
          "index": 0,
          "texCoord": 0
        },
        "metallicFactor": 0.48812390176872239,
        "roughnessFactor": 0.10702864035024488
      }
    },
    {
      "doubleSided": true,
      "emissiveFactor": [
        0,
        0,
        0
      ],
      "name": "Material_39",
      "pbrMetallicRoughness": {
        "baseColorFactor": [
          1,
          1,
          1,
          1
        ],
        "baseColorTexture": {
          "index": 0,
          "texCoord": 0
        },
        "metallicFactor": 0.15371437778547933,
        "roughnessFactor": 0.1841152436021378
      }
    },
    {
      "doubleSided": true,
      "emissiveFactor": [
        0,
        0,
        0
      ],
      "name": "Body_Color",
      "occlusionTexture": {
        "index": 1,
        "strength": 1,
        "texCoord": 0
      },
      "pbrMetallicRoughness": {
        "baseColorFactor": [
          1,
          1,
          1,
          1
        ],
        "baseColorTexture": {
          "index": 0,
          "texCoord": 0
        },
        "metallicFactor": 0,
        "metallicRoughnessTexture": {
          "index": 1,
          "texCoord": 0
        },
        "roughnessFactor": 0.89297135964975516
      }
    },
    {
      "alphaMode": "BLEND",
      "doubleSided": true,
      "emissiveFactor": [
        0,
        0,
        0
      ],
      "name": "Glas",
      "pbrMetallicRoughness": {
        "baseColorFactor": [
          0.42808864491572218,
          0.90774270001404145,
          1,
          0.23275662890879134
        ],
        "metallicFactor": 0.068591953498835651,
        "roughnessFactor": 0.14155403145881595
      }
    },
    {
      "doubleSided": true,
      "emissiveFactor": [
        0,
        0,
        0
      ],
      "name": "Body",
      "pbrMetallicRoughness": {
        "baseColorFactor": [
          1,
          1,
          1,
          1
        ],
        "baseColorTexture": {
          "index": 0,
          "texCoord": 0
        },
        "metallicFactor": 0,
        "roughnessFactor": 0.63370731298215355
      }
    },
    {
      "alphaMode": "BLEND",
      "doubleSided": true,
      "name": "Glas_0",
      "occlusionTexture": {
        "index": 1,
        "strength": 1,
        "texCoord": 0
      },
      "pbrMetallicRoughness": {
        "baseColorFactor": [
          0.53992023223775276,
          0.90194456666496592,
          1,
          0.44556268962540052
        ],
        "metallicFactor": 0.1050729924788258,
        "metallicRoughnessTexture": {
          "index": 1,
          "texCoord": 0
        },
        "roughnessFactor": 0.15371437778547933
      }
    },
    {
      "doubleSided": true,
      "emissiveFactor": [
        0,
        0,
        0
      ],
      "name": "Material_55",
      "pbrMetallicRoughness": {
        "baseColorFactor": [
          1,
          1,
          1,
          1
        ],
        "baseColorTexture": {
          "index": 0,
          "texCoord": 0
        },
        "metallicFactor": 0.068591953498835651,
        "roughnessFactor": 0.27531784105211315
      }
    },
    {
      "doubleSided": true,
      "emissiveFactor": [
        0,
        0,
        0
      ],
      "name": "Material_56",
      "pbrMetallicRoughness": {
        "baseColorFactor": [
          1,
          1,
          1,
          1
        ],
        "baseColorTexture": {
          "index": 0,
          "texCoord": 0
        },
        "metallicFactor": 0,
        "roughnessFactor": 0.63370731298215355
      }
    }
  ],
  "meshes": [
    {
      "name": "Gachapon_Material #37_0",
      "primitives": [
        {
          "attributes": {
            "NORMAL": 1,
            "POSITION": 0,
            "TEXCOORD_0": 2,
            "TEXCOORD_1": 3
          },
          "indices": 4,
          "material": 0,
          "mode": 4
        }
      ]
    },
    {
      "name": "Gachapon_Material #40_0",
      "primitives": [
        {
          "attributes": {
            "NORMAL": 6,
            "POSITION": 5,
            "TEXCOORD_0": 7,
            "TEXCOORD_1": 8
          },
          "indices": 9,
          "material": 1,
          "mode": 4
        }
      ]
    },
    {
      "name": "Gachapon_Material #39_0",
      "primitives": [
        {
          "attributes": {
            "NORMAL": 11,
            "POSITION": 10,
            "TEXCOORD_0": 12,
            "TEXCOORD_1": 13
          },
          "indices": 14,
          "material": 2,
          "mode": 4
        }
      ]
    },
    {
      "name": "Gachapon_Body Color_0",
      "primitives": [
        {
          "attributes": {
            "NORMAL": 16,
            "POSITION": 15,
            "TEXCOORD_0": 17,
            "TEXCOORD_1": 18
          },
          "indices": 19,
          "material": 3,
          "mode": 4
        }
      ]
    },
    {
      "name": "Gachapon_Glas_0",
      "primitives": [
        {
          "attributes": {
            "NORMAL": 21,
            "POSITION": 20,
            "TEXCOORD_0": 22,
            "TEXCOORD_1": 23
          },
          "indices": 24,
          "material": 4,
          "mode": 4
        }
      ]
    },
    {
      "name": "Gachapon_Body_0",
      "primitives": [
        {
          "attributes": {
            "NORMAL": 26,
            "POSITION": 25,
            "TEXCOORD_0": 27,
            "TEXCOORD_1": 28
          },
          "indices": 29,
          "material": 5,
          "mode": 4
        }
      ]
    },
    {
      "name": "Gachapon_Glas_0",
      "primitives": [
        {
          "attributes": {
            "NORMAL": 31,
            "POSITION": 30,
            "TEXCOORD_0": 32,
            "TEXCOORD_1": 33
          },
          "indices": 34,
          "material": 6,
          "mode": 4
        }
      ]
    },
    {
      "name": "Gachapon_Material #55_0",
      "primitives": [
        {
          "attributes": {
            "NORMAL": 36,
            "POSITION": 35,
            "TEXCOORD_0": 37,
            "TEXCOORD_1": 38
          },
          "indices": 39,
          "material": 7,
          "mode": 4
        }
      ]
    },
    {
      "name": "Gachapon_Material #56_0",
      "primitives": [
        {
          "attributes": {
            "NORMAL": 41,
            "POSITION": 40,
            "TEXCOORD_0": 42,
            "TEXCOORD_1": 43
          },
          "indices": 44,
          "material": 8,
          "mode": 4
        }
      ]
    }
  ],
  "nodes": [
    {
      "children": [
        1
      ],
      "name": "RootNode (gltf orientation matrix)",
      "rotation": [
        -0.70710678118654746,
        -0,
        -0,
        0.70710678118654757
      ]
    },
    {
      "children": [
        2
      ],
      "name": "RootNode (model correction matrix)"
    },
    {
      "children": [
        3
      ],
      "matrix": [
        1,
        0,
        0,
        0,
        0,
        0,
        1,
        0,
        0,
        -1,
        0,
        0,
        0,
        0,
        0,
        1
      ],
      "name": "b292a2dfe3fb4e47a0b0ce3fe1781ab0.fbx"
    },
    {
      "children": [
        4
      ],
      "name": "RootNode"
    },
    {
      "children": [
        5
      ],
      "matrix": [
        1,
        0,
        0,
        0,
        0,
        0.999999999999999,
        4.3711388286737922e-08,
        0,
        0,
        -4.3711388286737922e-08,
        0.999999999999999,
        0,
        126.541259765625,
        0,
        6.5554056167602539,
        1
      ],
      "name": "Gachapon"
    },
    {
      "children": [
        6,
        7,
        8,
        9,
        10,
        11,
        12,
        13,
        14
      ],
      "matrix": [
        6.123233995736766e-17,
        0,
        1,
        0,
        -4.3711408057186342e-08,
        0.999999999999999,
        2.676551798172854e-24,
        0,
        -0.999999999999999,
        -4.3711408057186342e-08,
        6.1232339957367599e-17,
        0,
        -29.277145385742188,
        35.767784118652344,
        -13.016084671020508,
        1
      ],
      "name": ""
    },
    {
      "mesh": 0,
      "name": "Gachapon_Material #37_0"
    },
    {
      "mesh": 1,
      "name": "Gachapon_Material #40_0"
    },
    {
      "mesh": 2,
      "name": "Gachapon_Material #39_0"
    },
    {
      "mesh": 3,
      "name": "Gachapon_Body Color_0"
    },
    {
      "mesh": 4,
      "name": "Gachapon_Glas_0"
    },
    {
      "mesh": 5,
      "name": "Gachapon_Body_0"
    },
    {
      "mesh": 6,
      "name": "Gachapon_Glas_0"
    },
    {
      "mesh": 7,
      "name": "Gachapon_Material #55_0"
    },
    {
      "mesh": 8,
      "name": "Gachapon_Material #56_0"
    }
  ],
  "samplers": [
    {
      "magFilter": 9729,
      "minFilter": 9987,
      "wrapS": 10497,
      "wrapT": 10497
    }
  ],
  "scene": 0,
  "scenes": [
    {
      "name": "OSG_Scene",
      "nodes": [
        0
      ]
    }
  ],
  "textures": [
    {
      "sampler": 0,
      "source": 0
    },
    {
      "sampler": 0,
      "source": 1
    }
  ]
}

